<svg xmlns="http://www.w3.org/2000/svg" xmlns:xlink="http://www.w3.org/1999/xlink" width="1080" zoomAndPan="magnify" viewBox="0 0 810 809.999993" height="1080" preserveAspectRatio="xMidYMid meet" version="1.0"><defs><filter x="0%" y="0%" width="100%" height="100%" id="id1"><feColorMatrix values="0 0 0 0 1 0 0 0 0 1 0 0 0 0 1 0 0 0 1 0" color-interpolation-filters="sRGB"/></filter><g/><mask id="id2"><g filter="url(#id1)"><rect x="-81" width="972" fill="#000000" y="-80.999999" height="971.999992" fill-opacity="0.149"/></g></mask><clipPath id="id3"><path d="M 0 62 L 221 62 L 221 199 L 0 199 Z M 0 62 " clip-rule="nonzero"/></clipPath><clipPath id="id4"><path d="M 138.007812 -27.085938 L 253.007812 426.5625 L -194.097656 539.90625 L -309.097656 86.253906 Z M 138.007812 -27.085938 " clip-rule="nonzero"/></clipPath><clipPath id="id5"><path d="M 138.007812 -27.085938 L 253.007812 426.5625 L -194.097656 539.90625 L -309.097656 86.253906 Z M 138.007812 -27.085938 " clip-rule="nonzero"/></clipPath><clipPath id="id6"><rect x="0" width="247" y="0" height="199"/></clipPath><clipPath id="id7"><path d="M 561 250.371094 L 720 250.371094 L 720 410 L 561 410 Z M 561 250.371094 " clip-rule="nonzero"/></clipPath><clipPath id="id8"><path d="M 679 647 L 761 647 L 761 728.871094 L 679 728.871094 Z M 679 647 " clip-rule="nonzero"/></clipPath><clipPath id="id9"><path d="M 145.078125 412 L 174 412 L 174 447 L 145.078125 447 Z M 145.078125 412 " clip-rule="nonzero"/></clipPath><clipPath id="id10"><path d="M 333 418.019531 L 360.914062 418.019531 L 360.914062 449.332031 L 333 449.332031 Z M 333 418.019531 " clip-rule="nonzero"/></clipPath></defs><g mask="url(#id2)"><g transform="matrix(1, 0, 0, 1, 0, 611)"><g clip-path="url(#id6)"><g clip-path="url(#id3)"><g clip-path="url(#id4)"><g clip-path="url(#id5)"><path fill="#ffffff" d="M 218.953125 312.308594 C 218.953125 312.308594 212.820312 268.023438 178.480469 211.511719 C 127.351562 127.152344 26.488281 86.324219 -4.523438 72.355469 C -35.535156 58.386719 -148.664062 45.953125 -212.222656 125.007812 C -275.777344 204.058594 -258.011719 287.78125 -191.75 368.308594 C -125.492188 448.832031 -18.351562 460.601562 92.324219 449.734375 C 203.003906 438.867188 227.707031 360.480469 218.953125 312.308594 Z M 89.183594 444.164062 C -18.542969 454.828125 -122.859375 443.433594 -187.3125 365.363281 C -251.769531 287.292969 -268.929688 205.960938 -206.988281 129.136719 C -145.050781 52.316406 -35.003906 64.4375 -4.761719 77.875 C 25.480469 91.308594 123.492188 130.949219 173.265625 212.835938 C 206.550781 267.703125 212.53125 310.664062 212.53125 310.664062 C 221.003906 357.359375 196.828125 433.523438 89.183594 444.164062 Z M 89.183594 444.164062 " fill-opacity="1" fill-rule="nonzero"/></g></g></g></g></g></g><g fill="#50b4bf" fill-opacity="1"><g transform="translate(80.999999, 186.12509)"><g><path d="M 72.863281 -59.039062 C 72.863281 -67.96875 73.296875 -76.894531 72.574219 -85.824219 C 72 -92.449219 67.824219 -95.761719 62.640625 -95.902344 C 57.3125 -95.902344 53.566406 -92.160156 52.414062 -85.390625 C 51.121094 -77.902344 49.96875 -70.414062 48.816406 -62.785156 C 48.238281 -58.320312 46.945312 -54.433594 41.902344 -53.566406 C 37.007812 -52.558594 32.832031 -54.71875 30.816406 -59.039062 C 29.089844 -63.070312 27.792969 -67.679688 27.503906 -72 C 27.214844 -80.207031 28.078125 -88.414062 28.078125 -96.625 C 28.078125 -100.945312 26.351562 -104.6875 21.742188 -105.695312 C 16.847656 -106.847656 13.824219 -103.824219 11.808594 -99.792969 C 11.089844 -98.496094 10.367188 -97.054688 10.078125 -95.617188 C 8.351562 -86.257812 5.617188 -76.894531 5.328125 -67.535156 C 4.464844 -46.65625 18.433594 -31.824219 39.167969 -30.238281 C 43.488281 -29.953125 44.207031 -28.367188 44.0625 -24.625 C 43.777344 -19.441406 43.777344 -14.257812 44.640625 -9.214844 C 45.648438 -3.742188 49.535156 -0.144531 55.296875 0.433594 C 61.199219 0.863281 65.519531 -2.160156 67.535156 -7.34375 C 69.121094 -11.089844 70.128906 -15.40625 70.558594 -19.441406 C 71.710938 -32.6875 72.433594 -45.792969 73.441406 -59.039062 C 73.152344 -59.039062 73.007812 -59.039062 72.863281 -59.039062 Z M 72.863281 -59.039062 "/></g></g></g><g fill="#50b4bf" fill-opacity="1"><g transform="translate(167.111962, 186.12509)"><g><path d="M 24.625 -90.433594 C 3.457031 -72 -0.863281 -40.464844 14.398438 -16.992188 C 19.441406 -9.214844 26.496094 -5.183594 35.855469 -5.183594 C 45.214844 -5.183594 53.566406 -7.777344 60.910156 -13.679688 C 71.710938 -22.753906 79.34375 -33.984375 82.945312 -47.808594 C 90 -75.3125 75.742188 -96.046875 48.382812 -98.207031 C 39.167969 -99.503906 31.390625 -96.191406 24.625 -90.433594 Z M 42.046875 -75.886719 C 44.351562 -78.191406 46.511719 -77.902344 48.816406 -75.457031 C 61.34375 -62.929688 61.054688 -44.496094 48.097656 -32.542969 C 40.464844 -25.488281 34.273438 -26.785156 30.671875 -36.289062 C 29.375 -39.886719 28.511719 -43.488281 27.648438 -46.945312 C 29.519531 -58.320312 33.839844 -68.113281 42.046875 -75.886719 Z M 42.046875 -75.886719 "/></g></g></g><g fill="#50b4bf" fill-opacity="1"><g transform="translate(264.599918, 186.12509)"><g><path d="M 72.863281 -59.039062 C 72.863281 -67.96875 73.296875 -76.894531 72.574219 -85.824219 C 72 -92.449219 67.824219 -95.761719 62.640625 -95.902344 C 57.3125 -95.902344 53.566406 -92.160156 52.414062 -85.390625 C 51.121094 -77.902344 49.96875 -70.414062 48.816406 -62.785156 C 48.238281 -58.320312 46.945312 -54.433594 41.902344 -53.566406 C 37.007812 -52.558594 32.832031 -54.71875 30.816406 -59.039062 C 29.089844 -63.070312 27.792969 -67.679688 27.503906 -72 C 27.214844 -80.207031 28.078125 -88.414062 28.078125 -96.625 C 28.078125 -100.945312 26.351562 -104.6875 21.742188 -105.695312 C 16.847656 -106.847656 13.824219 -103.824219 11.808594 -99.792969 C 11.089844 -98.496094 10.367188 -97.054688 10.078125 -95.617188 C 8.351562 -86.257812 5.617188 -76.894531 5.328125 -67.535156 C 4.464844 -46.65625 18.433594 -31.824219 39.167969 -30.238281 C 43.488281 -29.953125 44.207031 -28.367188 44.0625 -24.625 C 43.777344 -19.441406 43.777344 -14.257812 44.640625 -9.214844 C 45.648438 -3.742188 49.535156 -0.144531 55.296875 0.433594 C 61.199219 0.863281 65.519531 -2.160156 67.535156 -7.34375 C 69.121094 -11.089844 70.128906 -15.40625 70.558594 -19.441406 C 71.710938 -32.6875 72.433594 -45.792969 73.441406 -59.039062 C 73.152344 -59.039062 73.007812 -59.039062 72.863281 -59.039062 Z M 72.863281 -59.039062 "/></g></g></g><g fill="#50b4bf" fill-opacity="1"><g transform="translate(80.999999, 271.775104)"><g><path d="M 24.652344 -26.964844 C 22.722656 -31.667969 18.355469 -33.894531 12.640625 -33.136719 C 9.070312 -32.761719 6.71875 -31.078125 5.585938 -30.28125 C 4.996094 -29.863281 4.789062 -29.695312 4.492188 -29.820312 L 4.242188 -29.902344 L 4.199219 -30.199219 C 4.074219 -31.667969 3.527344 -31.878906 2.941406 -31.878906 C 2.941406 -31.878906 2.898438 -31.878906 2.898438 -31.878906 C 2.308594 -31.878906 1.722656 -31.667969 1.679688 -30.199219 C 1.679688 -26.417969 1.847656 -22.636719 2.058594 -18.941406 C 2.183594 -16.128906 2.351562 -13.273438 2.394531 -10.457031 C 2.394531 -9.535156 2.394531 -8.609375 2.394531 -7.726562 C 2.351562 -5.671875 2.351562 -3.527344 2.605469 -1.429688 C 2.6875 -0.757812 3.066406 0.0429688 4.15625 0 C 4.492188 0 5.460938 -0.0429688 5.628906 -1.597656 C 5.671875 -1.972656 5.628906 -2.351562 5.628906 -2.773438 C 5.585938 -3.023438 5.585938 -3.234375 5.585938 -3.484375 C 5.585938 -5.25 5.585938 -7.015625 5.585938 -8.777344 L 5.585938 -11.425781 L 6.132812 -11.214844 C 11.214844 -9.367188 15.917969 -9.996094 20.578125 -13.273438 C 25.746094 -16.84375 27.046875 -21.210938 24.652344 -26.964844 Z M 21.460938 -20.746094 C 21.378906 -19.738281 20.832031 -18.605469 20.160156 -17.933594 C 17.515625 -15.289062 14.574219 -13.945312 11.59375 -13.945312 C 9.828125 -13.945312 8.105469 -14.40625 6.34375 -15.328125 C 5.671875 -15.664062 6.132812 -22.597656 6.175781 -22.679688 C 6.59375 -25.789062 7.183594 -26.796875 9.574219 -28.265625 C 12.097656 -29.820312 15.328125 -29.902344 17.808594 -28.476562 C 20.496094 -26.921875 21.714844 -24.316406 21.460938 -20.746094 Z M 21.460938 -20.746094 "/></g></g></g><g fill="#50b4bf" fill-opacity="1"><g transform="translate(110.651992, 271.775104)"><g><path d="M 20.789062 -4.746094 C 20.203125 -8.863281 19.570312 -12.976562 18.941406 -17.136719 C 18.816406 -18.144531 18.691406 -19.320312 17.554688 -19.53125 C 16.800781 -19.699219 15.875 -19.234375 15.035156 -19.066406 C 12.179688 -20.074219 10.585938 -20.035156 7.726562 -18.3125 C 6.71875 -17.683594 5.710938 -16.925781 4.828125 -16.128906 C 1.933594 -13.480469 0.925781 -9.03125 2.308594 -5.710938 C 3.78125 -2.226562 7.222656 -0.925781 10.542969 -2.6875 C 11.675781 -3.277344 12.683594 -4.15625 13.648438 -5.039062 C 14.40625 -5.710938 14.992188 -6.59375 15.835938 -7.601562 C 15.960938 -7.097656 15.960938 -6.761719 16.085938 -6.511719 C 16.714844 -4.746094 17.304688 -2.941406 18.144531 -1.261719 C 18.355469 -0.796875 19.445312 -0.335938 19.90625 -0.503906 C 20.453125 -0.714844 20.957031 -1.554688 21.085938 -2.183594 C 21.210938 -2.980469 20.914062 -3.863281 20.789062 -4.746094 Z M 14.574219 -13.523438 C 13.691406 -10.878906 12.222656 -8.566406 10.078125 -6.761719 C 9.15625 -6.007812 8.105469 -5.207031 6.886719 -5.878906 C 5.671875 -6.550781 5.542969 -7.8125 5.460938 -8.777344 C 5.503906 -12.136719 9.03125 -16.085938 12.054688 -16.421875 C 14.113281 -16.675781 15.203125 -15.414062 14.574219 -13.523438 Z M 14.574219 -13.523438 "/></g></g></g><g fill="#50b4bf" fill-opacity="1"><g transform="translate(135.599994, 271.775104)"><g><path d="M 16.589844 -18.394531 C 16.546875 -18.898438 15.664062 -19.570312 15.121094 -19.65625 C 14.617188 -19.738281 13.984375 -19.109375 13.480469 -18.730469 C 13.3125 -18.605469 13.273438 -18.269531 13.3125 -18.3125 C 11.425781 -18.3125 9.660156 -18.605469 8.0625 -18.269531 C 2.5625 -17.09375 0.925781 -11.761719 2.015625 -7.183594 C 3.234375 -2.183594 8.484375 -0.503906 12.472656 -3.695312 C 12.726562 -3.90625 12.9375 -4.117188 13.480469 -4.535156 C 12.640625 -0.546875 11.425781 2.730469 8.023438 4.789062 C 7.519531 5.082031 7.054688 5.417969 6.59375 5.796875 C 5.039062 7.054688 4.535156 8.359375 5.207031 9.367188 C 5.878906 10.332031 7.308594 10.375 9.03125 9.449219 C 12.390625 7.558594 14.785156 4.914062 16.128906 1.261719 C 18.523438 -5.25 17.179688 -11.84375 16.589844 -18.394531 Z M 10.289062 -6.761719 C 9.535156 -6.046875 8.695312 -5.417969 7.519531 -5.921875 C 6.34375 -6.382812 5.710938 -7.351562 5.542969 -8.566406 C 4.871094 -13.398438 8.273438 -16.085938 13.144531 -14.449219 C 12.769531 -11.675781 12.601562 -8.863281 10.289062 -6.761719 Z M 10.289062 -6.761719 "/></g></g></g><g fill="#50b4bf" fill-opacity="1"><g transform="translate(156.935985, 271.775104)"><g><path d="M 5.710938 -9.871094 C 7.894531 -9.910156 10.039062 -9.910156 12.222656 -9.953125 C 14.953125 -10.039062 16.589844 -11.128906 17.09375 -13.0625 C 17.808594 -16.042969 16.210938 -19.152344 13.230469 -20.453125 C 10.078125 -21.839844 7.140625 -21.167969 5.082031 -18.5625 C 2.730469 -15.625 1.597656 -12.265625 1.722656 -8.609375 C 1.804688 -5.292969 3.445312 -2.6875 6.550781 -1.09375 C 9.703125 0.503906 12.976562 0.335938 16.085938 -1.300781 C 16.632812 -1.597656 17.21875 -2.519531 17.09375 -2.980469 C 16.96875 -3.445312 15.960938 -3.90625 15.371094 -3.949219 C 14.195312 -4.03125 13.019531 -3.738281 11.886719 -3.613281 C 8.023438 -3.191406 5.039062 -6.046875 5.503906 -9.742188 C 5.628906 -9.828125 5.671875 -9.871094 5.710938 -9.871094 Z M 8.398438 -17.21875 C 9.449219 -18.1875 11.003906 -18.144531 12.472656 -17.261719 C 13.523438 -16.589844 14.363281 -14.785156 13.859375 -13.777344 C 13.648438 -13.355469 12.9375 -12.976562 12.433594 -12.9375 C 10.289062 -12.726562 8.148438 -12.683594 5.839844 -12.601562 C 6.382812 -14.363281 7.054688 -16.003906 8.398438 -17.21875 Z M 8.398438 -17.21875 "/></g></g></g><g fill="#50b4bf" fill-opacity="1"><g transform="translate(178.019984, 271.775104)"><g/></g></g><g fill="#50b4bf" fill-opacity="1"><g transform="translate(196.541982, 271.775104)"><g><path d="M 26.082031 -6.511719 C 25.285156 -7.476562 24.570312 -8.527344 23.730469 -9.492188 C 18.605469 -15.539062 13.480469 -21.589844 8.273438 -27.550781 C 7.390625 -28.558594 6.046875 -29.230469 4.828125 -29.945312 C 4.074219 -30.367188 3.359375 -29.945312 3.109375 -29.105469 C 2.898438 -28.558594 2.773438 -27.972656 2.773438 -27.382812 C 2.394531 -19.613281 2.015625 -11.84375 1.722656 -4.074219 C 1.679688 -3.191406 1.765625 -2.308594 1.972656 -1.46875 C 2.226562 -0.503906 2.855469 0.0859375 3.90625 0.0429688 C 4.957031 -0.0429688 5.417969 -0.757812 5.628906 -1.679688 C 5.710938 -2.101562 5.710938 -2.5625 5.710938 -2.980469 C 5.796875 -9.703125 5.878906 -16.421875 5.921875 -23.101562 C 5.921875 -23.519531 6.007812 -23.941406 6.046875 -24.613281 C 7.265625 -22.972656 8.230469 -21.503906 9.324219 -20.160156 C 14.28125 -14.28125 19.277344 -8.441406 24.277344 -2.5625 C 24.652344 -2.101562 25.15625 -1.636719 25.660156 -1.300781 C 27.34375 -0.253906 29.0625 -0.882812 29.609375 -2.773438 C 29.902344 -3.738281 29.945312 -4.703125 30.070312 -5.671875 C 31.039062 -14.238281 30.03125 -22.804688 30.15625 -31.332031 C 30.15625 -32.339844 29.695312 -33.097656 28.644531 -33.222656 C 27.636719 -33.390625 26.921875 -32.800781 26.671875 -31.878906 C 26.417969 -30.828125 26.292969 -29.734375 26.335938 -28.6875 C 26.460938 -25.367188 26.878906 -22.050781 26.921875 -18.730469 C 26.964844 -14.699219 26.671875 -10.625 26.542969 -6.59375 C 26.375 -6.550781 26.207031 -6.511719 26.082031 -6.511719 Z M 26.082031 -6.511719 "/></g></g></g><g fill="#50b4bf" fill-opacity="1"><g transform="translate(230.89798, 271.775104)"><g><path d="M 18.816406 -12.097656 C 18.4375 -15.035156 14.53125 -18.605469 11.632812 -18.648438 C 6.382812 -18.816406 1.679688 -14.40625 1.679688 -9.199219 C 1.722656 -5.125 3.988281 -2.351562 7.980469 -1.597656 C 13.734375 -0.546875 19.613281 -6.300781 18.816406 -12.097656 Z M 10.710938 -5.710938 C 7.980469 -4.660156 5.460938 -6.425781 5.417969 -9.324219 C 5.375 -12.304688 8.316406 -15.371094 11.339844 -15.414062 C 11.800781 -15.414062 12.265625 -14.824219 12.683594 -14.488281 C 15.664062 -12.347656 15.539062 -7.601562 10.710938 -5.710938 Z M 10.710938 -5.710938 "/></g></g></g><g fill="#50b4bf" fill-opacity="1"><g transform="translate(253.619982, 271.775104)"><g><path d="M 16.800781 -2.644531 C 16.464844 -4.03125 15.289062 -3.445312 14.320312 -3.359375 C 12.769531 -3.277344 11.046875 -2.8125 9.910156 -4.324219 C 8.191406 -6.679688 7.8125 -9.40625 8.105469 -12.304688 C 8.734375 -12.347656 9.28125 -12.347656 9.828125 -12.433594 C 11.296875 -12.683594 12.851562 -12.851562 14.28125 -13.273438 C 14.742188 -13.398438 15.289062 -14.195312 15.246094 -14.699219 C 15.246094 -15.160156 14.617188 -15.875 14.152344 -15.960938 C 12.976562 -16.253906 11.761719 -16.296875 10.585938 -16.339844 C 9.828125 -16.378906 9.113281 -16.296875 8.191406 -16.253906 C 8.484375 -18.226562 8.695312 -20.035156 8.945312 -21.796875 C 9.070312 -22.679688 9.070312 -23.519531 8.023438 -23.773438 C 7.054688 -23.980469 6.511719 -23.308594 6.257812 -22.46875 C 5.839844 -21.125 5.417969 -19.738281 5.164062 -18.3125 C 4.914062 -16.84375 4.914062 -15.371094 2.773438 -15.289062 C 2.394531 -15.289062 1.679688 -14.28125 1.679688 -13.734375 C 1.722656 -13.273438 2.519531 -12.769531 3.066406 -12.433594 C 3.359375 -12.222656 3.863281 -12.304688 3.90625 -12.265625 C 4.535156 -9.449219 4.789062 -6.761719 5.753906 -4.324219 C 7.390625 -0.167969 10.921875 1.09375 15.035156 -0.628906 C 15.960938 -1.007812 17.136719 -1.34375 16.800781 -2.644531 Z M 16.800781 -2.644531 "/></g></g></g><g fill="#50b4bf" fill-opacity="1"><g transform="translate(274.325971, 271.775104)"><g/></g></g><g fill="#50b4bf" fill-opacity="1"><g transform="translate(292.847958, 271.775104)"><g><path d="M 15.289062 -28.601562 C 16.546875 -28.476562 17.722656 -27.929688 18.984375 -27.886719 C 19.65625 -27.886719 20.664062 -28.390625 21.042969 -28.980469 C 21.589844 -29.777344 21.085938 -30.660156 20.242188 -31.164062 C 19.699219 -31.542969 19.066406 -31.792969 18.4375 -32.046875 C 14.40625 -33.472656 10.289062 -33.515625 6.132812 -32.886719 C 4.957031 -32.71875 3.695312 -32.257812 2.6875 -31.585938 C 1.261719 -30.703125 1.429688 -29.273438 2.8125 -28.351562 C 3.148438 -28.140625 3.402344 -27.636719 3.445312 -27.257812 C 3.652344 -21.796875 3.863281 -16.378906 4.03125 -10.921875 C 4.117188 -8.023438 4.03125 -5.125 4.199219 -2.269531 C 4.242188 -0.757812 5.207031 0.0429688 6.34375 0.0429688 C 7.433594 0 8.230469 -0.925781 8.316406 -2.394531 C 8.359375 -2.898438 8.316406 -3.359375 8.316406 -3.863281 C 8.316406 -6.382812 8.316406 -8.863281 8.230469 -11.382812 C 8.230469 -12.304688 8.484375 -12.640625 9.449219 -12.726562 C 12.304688 -12.976562 15.203125 -13.230469 18.058594 -13.609375 C 20.203125 -13.902344 21.292969 -15.035156 21.085938 -16.464844 C 20.875 -17.890625 19.570312 -18.523438 17.386719 -18.269531 C 14.320312 -17.933594 11.257812 -17.597656 8.191406 -17.261719 C 7.769531 -21.085938 7.351562 -24.949219 6.886719 -29.191406 C 9.742188 -29.023438 12.515625 -28.894531 15.289062 -28.601562 Z M 15.289062 -28.601562 "/></g></g></g><g fill="#50b4bf" fill-opacity="1"><g transform="translate(318.005961, 271.775104)"><g><path d="M 18.816406 -12.097656 C 18.4375 -15.035156 14.53125 -18.605469 11.632812 -18.648438 C 6.382812 -18.816406 1.679688 -14.40625 1.679688 -9.199219 C 1.722656 -5.125 3.988281 -2.351562 7.980469 -1.597656 C 13.734375 -0.546875 19.613281 -6.300781 18.816406 -12.097656 Z M 10.710938 -5.710938 C 7.980469 -4.660156 5.460938 -6.425781 5.417969 -9.324219 C 5.375 -12.304688 8.316406 -15.371094 11.339844 -15.414062 C 11.800781 -15.414062 12.265625 -14.824219 12.683594 -14.488281 C 15.664062 -12.347656 15.539062 -7.601562 10.710938 -5.710938 Z M 10.710938 -5.710938 "/></g></g></g><g fill="#50b4bf" fill-opacity="1"><g transform="translate(340.727953, 271.775104)"><g><path d="M 19.109375 -4.15625 C 18.691406 -8.230469 18.269531 -12.304688 17.851562 -16.378906 C 17.808594 -16.84375 17.765625 -17.472656 17.472656 -17.765625 C 17.011719 -18.226562 16.339844 -18.730469 15.75 -18.730469 C 15.203125 -18.730469 14.574219 -18.1875 14.195312 -17.683594 C 13.902344 -17.347656 13.945312 -16.757812 13.816406 -16.296875 C 13.105469 -13.734375 12.640625 -11.089844 11.550781 -8.695312 C 10.457031 -6.214844 7.855469 -6.257812 6.382812 -8.609375 C 6.007812 -9.15625 5.710938 -9.871094 5.710938 -10.5 C 5.710938 -12.726562 5.878906 -14.953125 5.921875 -17.179688 C 5.921875 -17.890625 5.753906 -18.730469 5.335938 -19.234375 C 5.082031 -19.53125 4.074219 -19.53125 3.613281 -19.320312 C 3.148438 -19.066406 2.730469 -18.394531 2.5625 -17.851562 C 1.765625 -14.992188 1.386719 -12.054688 1.972656 -9.15625 C 2.5625 -6.007812 4.492188 -4.03125 7.519531 -3.109375 C 10.164062 -2.351562 12.265625 -3.316406 14.027344 -5.292969 C 14.113281 -5.417969 14.238281 -5.460938 14.363281 -5.503906 C 14.824219 -4.285156 15.078125 -2.941406 15.707031 -1.847656 C 16.085938 -1.261719 17.050781 -0.757812 17.765625 -0.714844 C 18.816406 -0.714844 19.152344 -1.679688 19.195312 -2.6875 C 19.234375 -3.148438 19.152344 -3.652344 19.109375 -4.15625 Z M 19.109375 -4.15625 "/></g></g></g><g fill="#50b4bf" fill-opacity="1"><g transform="translate(363.785942, 271.775104)"><g><path d="M 16.96875 -14.238281 C 16.296875 -15.835938 14.992188 -17.136719 13.398438 -17.683594 C 10.246094 -18.773438 8.105469 -16.925781 6.046875 -15.246094 C 5.460938 -14.742188 5.039062 -14.027344 4.324219 -13.1875 C 4.242188 -14.363281 4.285156 -15.289062 4.074219 -16.171875 C 4.03125 -16.296875 3.988281 -16.421875 3.863281 -16.546875 C 3.402344 -17.09375 2.605469 -17.09375 2.226562 -16.464844 C 2.140625 -16.378906 2.101562 -16.296875 2.058594 -16.171875 C 1.890625 -15.289062 1.890625 -14.363281 1.890625 -13.480469 C 1.804688 -10.542969 1.765625 -7.644531 1.679688 -4.703125 C 1.679688 -3.78125 2.101562 -3.109375 3.066406 -2.980469 C 4.074219 -2.8125 4.660156 -3.359375 4.957031 -4.285156 C 5.125 -4.703125 5.082031 -5.207031 5.25 -5.585938 C 6.175781 -7.8125 6.972656 -10.121094 8.148438 -12.222656 C 8.652344 -13.1875 9.828125 -13.945312 10.878906 -14.488281 C 11.929688 -15.078125 13.1875 -14.617188 13.523438 -13.441406 C 13.984375 -12.054688 14.195312 -10.542969 14.40625 -9.070312 C 14.65625 -7.222656 14.785156 -5.375 15.035156 -3.570312 C 15.203125 -2.6875 15.707031 -1.933594 16.757812 -1.972656 C 17.808594 -2.058594 18.226562 -2.8125 18.3125 -3.738281 C 18.605469 -7.351562 18.394531 -10.921875 16.96875 -14.238281 Z M 16.96875 -14.238281 "/></g></g></g><g fill="#50b4bf" fill-opacity="1"><g transform="translate(386.045936, 271.775104)"><g><path d="M 18.984375 -31.121094 C 18.523438 -30.742188 17.851562 -30.449219 17.683594 -29.988281 C 17.347656 -28.894531 17.136719 -27.71875 17.050781 -26.542969 C 16.800781 -23.058594 16.675781 -19.53125 16.464844 -15.792969 C 16.171875 -16.085938 16.003906 -16.253906 15.835938 -16.378906 C 11.96875 -19.949219 6.046875 -19.152344 3.652344 -14.488281 C 2.644531 -12.515625 2.140625 -10.246094 1.765625 -8.0625 C 1.554688 -7.054688 1.933594 -5.796875 2.394531 -4.828125 C 4.074219 -1.386719 9.28125 0 12.851562 -2.015625 C 13.902344 -2.605469 14.867188 -3.277344 16.042969 -4.03125 C 16.128906 -3.023438 16.128906 -2.183594 16.253906 -1.386719 C 16.378906 -0.503906 16.925781 0.0859375 17.851562 0.125 C 18.816406 0.125 19.363281 -0.460938 19.488281 -1.386719 C 19.570312 -1.679688 19.570312 -2.015625 19.570312 -2.308594 C 19.65625 -11.425781 19.738281 -20.539062 19.738281 -29.652344 C 19.738281 -30.113281 19.234375 -30.617188 18.984375 -31.121094 Z M 13.398438 -6.679688 C 12.097656 -5.839844 10.960938 -4.621094 9.28125 -4.789062 C 5.921875 -4.828125 4.789062 -6.175781 5.375 -9.367188 C 5.585938 -10.375 5.921875 -11.382812 6.382812 -12.304688 C 7.390625 -14.449219 8.820312 -15.289062 10.835938 -15.035156 C 13.273438 -14.742188 14.53125 -13.609375 15.121094 -11.214844 C 15.121094 -11.128906 15.121094 -11.046875 15.160156 -10.960938 C 15.707031 -8.230469 15.707031 -8.191406 13.398438 -6.679688 Z M 13.398438 -6.679688 "/></g></g></g><g fill="#50b4bf" fill-opacity="1"><g transform="translate(409.649924, 271.775104)"><g><path d="M 3.90625 -4.242188 C 2.476562 -4.410156 1.804688 -3.695312 1.679688 -2.140625 C 1.636719 -1.09375 2.308594 -0.335938 3.359375 -0.253906 C 4.367188 -0.210938 5.671875 -1.511719 5.753906 -2.773438 C 5.796875 -4.074219 4.789062 -4.15625 3.90625 -4.242188 Z M 3.90625 -4.242188 "/></g></g></g><g fill="#50b4bf" fill-opacity="1"><g transform="translate(419.225927, 271.775104)"><g><path d="M 3.90625 -4.242188 C 2.476562 -4.410156 1.804688 -3.695312 1.679688 -2.140625 C 1.636719 -1.09375 2.308594 -0.335938 3.359375 -0.253906 C 4.367188 -0.210938 5.671875 -1.511719 5.753906 -2.773438 C 5.796875 -4.074219 4.789062 -4.15625 3.90625 -4.242188 Z M 3.90625 -4.242188 "/></g></g></g><path fill="#fed9e9" d="M 511.820312 557.699219 C 467.386719 562.660156 463.371094 566.679688 458.410156 611.136719 C 453.449219 566.679688 449.433594 562.660156 405 557.699219 C 449.433594 552.734375 453.449219 548.71875 458.410156 504.261719 C 463.371094 548.71875 467.386719 552.734375 511.820312 557.699219 " fill-opacity="1" fill-rule="nonzero"/><g clip-path="url(#id7)"><path fill="#fed9e9" d="M 719.78125 330.339844 C 653.761719 337.703125 647.792969 343.699219 640.429688 409.734375 C 633.070312 343.699219 627.101562 337.703125 561.078125 330.339844 C 627.101562 322.976562 633.070312 317.003906 640.429688 250.945312 C 647.792969 317.003906 653.761719 322.976562 719.78125 330.339844 " fill-opacity="1" fill-rule="nonzero"/></g><path fill="#fed9e9" d="M 726.46875 549.972656 C 698.328125 553.117188 695.769531 555.65625 692.652344 583.8125 C 689.488281 555.65625 686.953125 553.117188 658.808594 549.972656 C 686.953125 546.832031 689.488281 544.292969 692.652344 516.117188 C 695.769531 544.292969 698.328125 546.832031 726.46875 549.972656 " fill-opacity="1" fill-rule="nonzero"/><g clip-path="url(#id8)"><path fill="#fed9e9" d="M 760.289062 687.769531 C 726.582031 691.519531 723.554688 694.570312 719.78125 728.296875 C 716.035156 694.570312 712.984375 691.519531 679.277344 687.769531 C 712.984375 683.996094 716.035156 680.941406 719.78125 647.21875 C 723.554688 680.941406 726.582031 683.996094 760.289062 687.769531 " fill-opacity="1" fill-rule="nonzero"/></g><path fill="#fed9e9" d="M 557.578125 707.101562 C 540.722656 708.988281 539.199219 710.511719 537.3125 727.375 C 535.449219 710.511719 533.925781 708.988281 517.070312 707.101562 C 533.925781 705.238281 535.449219 703.710938 537.3125 686.847656 C 539.199219 703.710938 540.722656 705.238281 557.578125 707.101562 " fill-opacity="1" fill-rule="nonzero"/><path fill="#ffffff" d="M 564.894531 477.878906 C 564.894531 483.46875 560.359375 488.003906 554.75 488.003906 C 549.164062 488.003906 544.628906 483.46875 544.628906 477.878906 C 544.628906 472.289062 549.164062 467.75 554.75 467.75 C 560.359375 467.75 564.894531 472.289062 564.894531 477.878906 " fill-opacity="1" fill-rule="nonzero"/><path fill="#ffffff" d="M 478.652344 357.753906 C 478.652344 363.34375 474.117188 367.878906 468.53125 367.878906 C 462.941406 367.878906 458.410156 363.34375 458.410156 357.753906 C 458.410156 352.164062 462.941406 347.628906 468.53125 347.628906 C 474.117188 347.628906 478.652344 352.164062 478.652344 357.753906 " fill-opacity="1" fill-rule="nonzero"/><path fill="#ffffff" d="M 771.800781 488.003906 C 771.800781 489.957031 770.207031 491.53125 768.257812 491.53125 C 766.328125 491.53125 764.734375 489.957031 764.734375 488.003906 C 764.734375 486.050781 766.328125 484.480469 768.257812 484.480469 C 770.207031 484.480469 771.800781 486.050781 771.800781 488.003906 " fill-opacity="1" fill-rule="nonzero"/><path fill="#ffffff" d="M 774.921875 350.433594 C 774.921875 354.476562 771.667969 357.753906 767.628906 357.753906 C 763.589844 357.753906 760.289062 354.476562 760.289062 350.433594 C 760.289062 346.394531 763.589844 343.113281 767.628906 343.113281 C 771.667969 343.113281 774.921875 346.394531 774.921875 350.433594 " fill-opacity="1" fill-rule="nonzero"/><path fill="#ffffff" d="M 551.945312 655.636719 C 551.945312 659.679688 548.667969 662.933594 544.628906 662.933594 C 540.589844 662.933594 537.3125 659.679688 537.3125 655.636719 C 537.3125 651.574219 540.589844 648.296875 544.628906 648.296875 C 548.667969 648.296875 551.945312 651.574219 551.945312 655.636719 " fill-opacity="1" fill-rule="nonzero"/><path fill="#d1daea" d="M 747.699219 593.644531 L 712.398438 622.273438 L 565.410156 440.964844 L 600.710938 412.292969 L 747.699219 593.644531 " fill-opacity="1" fill-rule="nonzero"/><path fill="#9cafcc" d="M 712.398438 622.273438 L 671.828125 655.1875 L 601.71875 485.757812 Z M 712.398438 622.273438 " fill-opacity="1" fill-rule="nonzero"/><path fill="#d1daea" d="M 747.699219 593.644531 L 788.273438 560.707031 L 637.019531 457.109375 Z M 747.699219 593.644531 " fill-opacity="1" fill-rule="nonzero"/><path fill="#9cafcc" d="M 747.699219 593.644531 L 788.273438 560.707031 L 637.019531 457.109375 Z M 747.699219 593.644531 " fill-opacity="1" fill-rule="nonzero"/><path fill="#232946" d="M 656.140625 617.265625 L 671.828125 655.1875 L 712.398438 622.273438 L 687.625 591.714844 L 656.140625 617.265625 " fill-opacity="1" fill-rule="nonzero"/><path fill="#232946" d="M 619.671875 507.898438 L 601.71875 485.757812 L 613.097656 513.242188 Z M 619.671875 507.898438 " fill-opacity="1" fill-rule="nonzero"/><path fill="#232946" d="M 616.621094 521.730469 L 623.375 538.097656 L 635.898438 527.925781 L 625.238281 514.746094 L 616.621094 521.730469 " fill-opacity="1" fill-rule="nonzero"/><path fill="#d1daea" d="M 722.902344 563.066406 L 747.699219 593.644531 L 788.273438 560.707031 L 754.386719 537.511719 L 722.902344 563.066406 " fill-opacity="1" fill-rule="nonzero"/><path fill="#232946" d="M 722.902344 563.066406 L 747.699219 593.644531 L 788.273438 560.707031 L 754.386719 537.511719 L 722.902344 563.066406 " fill-opacity="1" fill-rule="nonzero"/><path fill="#d1daea" d="M 661.546875 473.925781 L 637.019531 457.109375 L 654.972656 479.246094 Z M 661.546875 473.925781 " fill-opacity="1" fill-rule="nonzero"/><path fill="#232946" d="M 661.546875 473.925781 L 637.019531 457.109375 L 654.972656 479.246094 Z M 661.546875 473.925781 " fill-opacity="1" fill-rule="nonzero"/><path fill="#d1daea" d="M 660.515625 486.097656 L 671.199219 499.277344 L 683.742188 489.125 L 669.132812 479.113281 L 660.515625 486.09375 " fill-opacity="1" fill-rule="nonzero"/><path fill="#232946" d="M 660.515625 486.097656 L 671.199219 499.277344 L 683.742188 489.125 L 669.132812 479.113281 L 660.515625 486.09375 " fill-opacity="1" fill-rule="nonzero"/><path fill="#9cafcc" d="M 538.480469 371.046875 L 538.457031 371.070312 L 537.917969 371.496094 L 537.875 371.519531 L 568.507812 438.429688 L 582.78125 426.84375 L 583.316406 426.414062 L 597.589844 414.828125 L 538.480469 371.046875 " fill-opacity="1" fill-rule="nonzero"/><path fill="#d1daea" d="M 359.03125 436.601562 C 357.863281 436.601562 356.101562 437.300781 355.15625 437.671875 C 354.953125 437.75 354.785156 437.820312 354.664062 437.863281 L 354.023438 436.859375 C 354.371094 436.511719 354.699219 436.164062 355.03125 435.820312 C 355.847656 434.960938 356.691406 434.074219 357.742188 433.25 C 357.929688 433.105469 358.113281 432.96875 358.296875 432.828125 C 359.648438 431.808594 360.46875 431.121094 360.269531 429.863281 C 360.171875 429.277344 359.9375 429.164062 359.5625 429.164062 C 358.925781 429.164062 358.054688 429.558594 357.417969 429.847656 L 357.175781 429.957031 C 356.214844 430.386719 355.304688 430.871094 354.476562 431.398438 L 353.660156 430.515625 C 354.023438 430.035156 354.460938 429.59375 354.886719 429.167969 C 355.078125 428.972656 355.269531 428.78125 355.453125 428.585938 C 355.660156 428.367188 355.921875 428.113281 356.210938 427.84375 C 357.179688 426.929688 358.503906 425.679688 358.316406 424.679688 C 358.1875 424.007812 357.34375 423.640625 356.613281 423.640625 C 356.558594 423.640625 356.503906 423.644531 356.449219 423.648438 C 355.6875 423.710938 355.0625 424.25 354.398438 424.820312 C 354.179688 425.007812 353.964844 425.191406 353.742188 425.363281 C 352.648438 426.207031 351.542969 427.042969 350.433594 427.871094 L 349.523438 427.109375 C 349.898438 426.359375 350.4375 425.527344 351.007812 424.652344 C 351.84375 423.363281 352.710938 422.03125 353.054688 420.941406 C 353.308594 420.121094 353.316406 419.488281 353.078125 419.167969 C 352.851562 418.859375 352.367188 418.796875 352.003906 418.796875 C 351.128906 418.796875 349.929688 419.160156 348.941406 419.726562 C 346.042969 421.308594 343.140625 423.785156 340.761719 426.699219 L 340.117188 427.464844 C 338.144531 429.816406 335.050781 433.503906 333.765625 437.007812 C 328.878906 437.882812 326.316406 445.042969 320.171875 448.804688 C 301.433594 460.265625 288.347656 461.652344 280.5625 461.234375 C 289.0625 456.738281 294.433594 449.050781 297.308594 440.445312 C 300.269531 439.039062 302.441406 434.511719 302.441406 429.132812 C 302.441406 425.429688 301.414062 422.132812 299.808594 419.972656 C 299.359375 413.4375 297.765625 407.382812 295.296875 402.800781 C 284.703125 382.984375 262.183594 372.761719 242.316406 378.21875 C 221.914062 383.960938 211.761719 394.003906 205.925781 416.398438 C 205.667969 417.402344 205.464844 418.457031 205.3125 419.554688 C 203.203125 421.59375 201.777344 425.386719 201.777344 429.738281 C 201.777344 435.65625 204.402344 440.539062 207.820312 441.375 C 210.894531 450.414062 216.402344 458.625 224.035156 462.320312 L 222.050781 462.363281 L 219.488281 473.109375 L 222.050781 462.363281 C 216.171875 460.769531 206.957031 457.113281 195.570312 450.210938 C 193.132812 448.734375 185.621094 442.515625 184.152344 440.085938 C 183.054688 438.269531 178.3125 432.699219 176.25 431.777344 C 175.09375 431.265625 173.902344 431.390625 172.746094 431.851562 C 171.546875 428.253906 168.308594 424.398438 166.273438 421.972656 L 165.625 421.199219 C 163.25 418.292969 160.347656 415.816406 157.441406 414.226562 C 156.460938 413.667969 155.257812 413.304688 154.386719 413.304688 C 154.023438 413.304688 153.539062 413.367188 153.3125 413.675781 C 153.074219 413.996094 153.082031 414.628906 153.332031 415.445312 C 153.679688 416.535156 154.546875 417.867188 155.382812 419.15625 C 155.953125 420.035156 156.492188 420.863281 156.867188 421.617188 L 155.953125 422.378906 C 154.847656 421.546875 153.742188 420.714844 152.644531 419.867188 C 152.425781 419.699219 152.210938 419.515625 151.992188 419.328125 C 151.328125 418.757812 150.703125 418.21875 149.941406 418.15625 C 149.886719 418.152344 149.832031 418.148438 149.777344 418.148438 C 149.046875 418.148438 148.203125 418.511719 148.074219 419.1875 C 147.882812 420.1875 149.210938 421.4375 150.179688 422.351562 C 150.464844 422.625 150.730469 422.871094 150.9375 423.09375 C 151.121094 423.289062 151.3125 423.480469 151.507812 423.679688 C 151.929688 424.101562 152.367188 424.539062 152.730469 425.027344 L 151.914062 425.90625 C 151.085938 425.382812 150.179688 424.894531 149.210938 424.464844 L 148.972656 424.359375 C 148.335938 424.066406 147.460938 423.671875 146.828125 423.671875 C 146.453125 423.671875 146.21875 423.785156 146.121094 424.367188 C 145.917969 425.628906 146.738281 426.320312 148.089844 427.335938 C 148.273438 427.472656 148.460938 427.617188 148.644531 427.757812 C 149.695312 428.582031 150.539062 429.46875 151.359375 430.328125 C 151.6875 430.671875 152.019531 431.019531 152.367188 431.367188 L 151.726562 432.371094 C 151.601562 432.328125 151.433594 432.261719 151.230469 432.179688 C 150.285156 431.804688 148.523438 431.109375 147.359375 431.109375 C 146.535156 431.109375 146.535156 431.433594 146.535156 431.699219 C 146.535156 432.375 148.097656 433.675781 149.238281 434.625 C 150.257812 435.46875 151.21875 436.269531 151.632812 436.960938 C 152.0625 437.617188 152.414062 438.277344 152.753906 438.917969 C 153.484375 440.28125 154.171875 441.570312 155.488281 442.621094 C 156.386719 443.375 158.40625 444.902344 160.632812 445.535156 C 159.886719 447.699219 159.644531 449.921875 160.261719 451.984375 C 161.847656 457.273438 166.316406 462.523438 169.683594 466.8125 C 173.246094 471.355469 177.484375 475.5 181.722656 479.414062 C 193.601562 490.359375 214.761719 486.636719 214.765625 492.929688 L 214.761719 492.929688 C 214.761719 495.707031 216.277344 521.550781 220.476562 540.589844 C 220.796875 542.050781 221.566406 543.082031 222.601562 543.828125 L 222.59375 543.832031 C 228.464844 562.21875 236.566406 576 240.832031 580.558594 C 253.320312 594.242188 259.804688 592.835938 278.085938 589.492188 C 289.03125 601.210938 301.597656 604.820312 314.632812 607.953125 C 317.441406 608.628906 322.898438 609.703125 324.996094 611.613281 C 327.488281 613.878906 323.671875 618.496094 326.058594 621.667969 C 329.714844 627.75 334.285156 625.316406 336.417969 620.757812 C 338.546875 616.800781 347.992188 598.5625 342.507812 595.519531 C 339.996094 594.125 337.089844 593.53125 334.578125 592.027344 C 332.289062 590.65625 330.046875 589.183594 327.785156 587.761719 C 323.171875 584.859375 318.632812 581.523438 315.175781 577.28125 C 314.726562 576.730469 314.300781 576.160156 313.902344 575.578125 C 314.441406 575.679688 314.765625 575.738281 314.765625 575.738281 L 315.378906 575.738281 C 315.308594 576.121094 315.234375 576.503906 315.144531 576.886719 C 316.140625 576.644531 317.070312 576.515625 317.839844 576.582031 C 318.011719 576.601562 318.175781 576.625 318.328125 576.671875 C 318.375 576.441406 318.410156 576.210938 318.449219 575.980469 C 319.699219 576.648438 321.050781 578.367188 321.726562 579.691406 C 322.542969 581.285156 323.386719 582.929688 325.089844 583.40625 L 325.148438 583.425781 C 326.355469 583.902344 327.453125 584.144531 328.402344 584.144531 C 329.683594 584.144531 330.683594 583.710938 331.375 582.851562 C 332.390625 581.59375 332.683594 579.4375 332.160156 577.046875 C 330.425781 566.226562 326.855469 553.589844 322.5 553.589844 C 322.394531 553.589844 322.289062 553.601562 322.179688 553.613281 C 320.851562 553.804688 319.574219 554.183594 318.222656 554.578125 C 317.597656 554.761719 316.320312 554.949219 315.671875 555.117188 C 315.703125 555.203125 315.722656 555.289062 315.746094 555.375 C 315.667969 555.148438 315.589844 554.914062 315.507812 554.6875 C 314.847656 554.847656 314.175781 554.972656 313.492188 555.046875 C 313.148438 555.085938 312.8125 555.121094 312.472656 555.152344 C 312.550781 555.367188 312.625 555.585938 312.703125 555.804688 C 311.875 555.882812 310.410156 555.957031 309.585938 556.027344 C 309.671875 556.726562 309.535156 557.4375 309.238281 558.148438 C 308.214844 550.238281 307.457031 541.269531 307.457031 535.820312 L 307.453125 535.824219 C 307.980469 535.402344 308.429688 534.917969 308.710938 534.34375 C 309.832031 532.027344 308.277344 528.597656 307.421875 526.4375 C 305.765625 522.257812 304.933594 518.0625 304.042969 513.675781 C 303.148438 509.265625 301.714844 504.96875 301.023438 500.519531 C 300.351562 496.1875 299.976562 491.359375 300.164062 486.972656 C 314.648438 484.644531 320.882812 483.476562 332.308594 474.511719 C 338.207031 469.886719 338.144531 469.566406 342.960938 463.816406 C 346.660156 459.363281 352.046875 453.691406 350.15625 448.707031 C 350.453125 448.480469 350.714844 448.273438 350.914062 448.105469 C 352.21875 447.0625 352.90625 445.773438 353.636719 444.40625 C 353.976562 443.769531 354.332031 443.105469 354.746094 442.46875 C 355.171875 441.761719 356.136719 440.960938 357.152344 440.117188 C 358.292969 439.167969 359.855469 437.871094 359.855469 437.191406 C 359.855469 436.925781 359.855469 436.601562 359.03125 436.601562 " fill-opacity="1" fill-rule="nonzero"/><path fill="#9cafcc" d="M 315.144531 576.886719 C 315.070312 576.90625 314.988281 576.929688 314.917969 576.949219 L 314.910156 576.941406 C 314.988281 576.921875 315.070312 576.90625 315.144531 576.886719 " fill-opacity="1" fill-rule="nonzero"/><path fill="#9cafcc" d="M 321.328125 580.253906 C 320.503906 578.65625 319.78125 577.089844 318.328125 576.679688 L 318.328125 576.671875 C 319.789062 577.078125 320.515625 578.648438 321.328125 580.253906 " fill-opacity="1" fill-rule="nonzero"/><path fill="#9cafcc" d="M 193.046875 448.410156 C 190.757812 453.871094 188.164062 459.191406 184.605469 463.960938 C 182.558594 466.703125 180.046875 469.136719 177.441406 471.347656 C 176.75 471.9375 176.003906 472.539062 175.21875 473.105469 C 176.066406 473.980469 176.925781 474.84375 177.800781 475.691406 C 177.925781 475.597656 178.054688 475.507812 178.183594 475.414062 C 181.257812 473.101562 184.074219 470.386719 186.511719 467.421875 C 190.664062 462.367188 193.585938 456.53125 196.117188 450.539062 C 195.933594 450.425781 195.753906 450.320312 195.570312 450.210938 C 194.976562 449.851562 194.082031 449.210938 193.046875 448.410156 " fill-opacity="1" fill-rule="nonzero"/><path fill="#9cafcc" d="M 308.902344 555.472656 C 309.550781 560.925781 310.339844 566.132812 311.132812 569.675781 C 311.839844 572.371094 313.203125 574.777344 314.914062 576.945312 C 314.992188 576.925781 315.070312 576.90625 315.144531 576.886719 C 316.878906 569.523438 315 562.210938 312.472656 555.148438 C 311.285156 555.265625 310.09375 555.375 308.902344 555.472656 " fill-opacity="1" fill-rule="nonzero"/><path fill="#9cafcc" d="M 324.921875 583.992188 C 331.652344 586.640625 333.855469 581.90625 332.761719 576.949219 C 332.046875 572.480469 328.425781 552.109375 322.09375 553.011719 C 319.859375 553.328125 317.726562 554.167969 315.511719 554.683594 C 318.011719 561.84375 319.832031 569.21875 318.324219 576.679688 C 321.242188 577.488281 321.222656 582.957031 324.921875 583.992188 " fill-opacity="1" fill-rule="nonzero"/><path fill="#9cafcc" d="M 256.851562 554.40625 L 256.257812 554.5625 C 261.523438 574.382812 269.503906 581.855469 275.914062 587.859375 C 276.53125 588.4375 277.132812 589 277.714844 589.558594 C 277.835938 589.535156 277.957031 589.515625 278.082031 589.492188 L 278.296875 589.269531 C 277.664062 588.664062 277.007812 588.046875 276.332031 587.414062 C 269.976562 581.460938 262.070312 574.054688 256.851562 554.40625 " fill-opacity="1" fill-rule="nonzero"/><path fill="#9cafcc" d="M 334.578125 592.027344 C 333.472656 591.367188 332.382812 590.679688 331.292969 589.992188 C 331.140625 593.460938 330.382812 596.859375 328.832031 600.078125 C 327.0625 603.742188 324.5 606.925781 321.679688 609.847656 C 323.035156 610.339844 324.234375 610.921875 324.996094 611.613281 C 325.003906 611.617188 325.007812 611.625 325.015625 611.632812 C 327.742188 608.699219 330.203125 605.519531 332 601.925781 C 333.546875 598.832031 334.453125 595.53125 334.8125 592.152344 C 334.734375 592.109375 334.652344 592.070312 334.578125 592.027344 " fill-opacity="1" fill-rule="nonzero"/><path fill="#9cafcc" d="M 328.941406 477.03125 C 329.910156 476.34375 330.910156 475.59375 331.957031 474.785156 C 329.304688 472.570312 326.929688 470.050781 324.917969 467.59375 C 321.171875 463.015625 317.59375 456.910156 316.917969 450.722656 C 315.757812 451.382812 314.621094 452.003906 313.507812 452.589844 C 314.628906 458.921875 318.203125 464.976562 322.070312 469.867188 C 324.054688 472.375 326.375 474.835938 328.941406 477.03125 " fill-opacity="1" fill-rule="nonzero"/><path fill="#9cafcc" d="M 308.3125 528.71875 C 308.085938 529.140625 307.863281 529.558594 307.636719 529.980469 C 306.859375 531.445312 306.113281 532.199219 304.609375 532.988281 C 302.5625 534.066406 300.433594 534.703125 298.167969 535.148438 C 288.992188 536.960938 279.792969 538.824219 270.582031 540.453125 C 264.722656 541.484375 258.828125 542.265625 252.90625 542.640625 C 252.28125 542.683594 251.660156 542.71875 251.039062 542.75 C 248.640625 542.867188 246.234375 542.921875 243.828125 542.886719 C 239.082031 542.820312 234.351562 542.394531 229.65625 541.699219 C 226.9375 541.296875 223.277344 541.222656 221.089844 539.34375 C 220.652344 538.964844 220.421875 538.519531 220.277344 537.96875 C 220.175781 537.582031 219.984375 537.292969 219.746094 537.082031 C 219.980469 538.273438 220.222656 539.441406 220.476562 540.589844 C 220.796875 542.050781 221.566406 543.078125 222.601562 543.828125 C 222.84375 544.007812 223.109375 544.167969 223.382812 544.316406 C 223.40625 544.320312 223.433594 544.328125 223.460938 544.335938 C 227.109375 545.289062 231.054688 545.625 234.792969 546.011719 C 243.878906 546.960938 253.027344 546.59375 262.070312 545.4375 C 271.152344 544.273438 280.113281 542.371094 289.078125 540.554688 C 293.636719 539.625 298.449219 539.175781 302.878906 537.726562 C 304.636719 537.152344 306.402344 536.292969 307.953125 535.277344 C 308.035156 535.222656 308.109375 535.164062 308.1875 535.109375 C 308.390625 534.871094 308.574219 534.621094 308.710938 534.339844 C 309.484375 532.742188 308.980469 530.601562 308.3125 528.71875 " fill-opacity="1" fill-rule="nonzero"/><path fill="#9cafcc" d="M 223.742188 467.6875 C 226.703125 468.875 230.164062 469.378906 232.894531 469.683594 C 235.859375 470.074219 238.9375 470.371094 242.046875 470.554688 C 242.660156 470.59375 243.273438 470.617188 243.882812 470.644531 C 248.664062 470.859375 253.472656 470.804688 258.023438 470.375 C 263.984375 469.765625 273.398438 468.308594 279.054688 465.71875 C 280.015625 465.238281 281.140625 464.585938 282.195312 463.863281 C 283.808594 475.453125 290.585938 485.859375 300.210938 492.671875 C 300.128906 491.109375 300.101562 489.554688 300.136719 488.039062 C 291.914062 481.398438 286.4375 471.761719 285.605469 461.214844 C 285.449219 461.222656 285.292969 461.234375 285.144531 461.242188 C 285.980469 460.113281 286.261719 458.660156 285.355469 458.117188 C 284.988281 457.898438 284.4375 457.820312 283.644531 457.972656 C 282.5625 458.183594 281.535156 458.859375 280.550781 459.277344 C 279.589844 459.6875 278.636719 460.113281 277.675781 460.53125 C 271.871094 462.511719 263.15625 464.496094 256.890625 464.648438 C 252.152344 464.800781 247.414062 464.800781 242.675781 464.648438 C 238.546875 464.496094 234.269531 464.34375 230.140625 463.578125 C 227.265625 463.222656 224.910156 462.609375 222.328125 461.257812 C 221.957031 461.0625 221.507812 460.785156 221.054688 460.582031 C 220.238281 460.21875 219.398438 460.085938 218.917969 461.085938 C 218.871094 461.179688 218.84375 461.277344 218.804688 461.375 C 218.277344 462.746094 218.660156 464.222656 219.75 465.257812 C 220.160156 465.648438 220.617188 466.003906 221.105469 466.328125 L 220.015625 470.894531 C 219.765625 474.335938 218.960938 477.769531 217.886719 480.878906 C 217.691406 481.441406 217.472656 482.007812 217.230469 482.570312 L 214.917969 492.277344 C 217.675781 489.796875 219.6875 486.335938 221.070312 482.808594 C 222.867188 478.21875 223.929688 472.84375 223.742188 467.6875 " fill-opacity="1" fill-rule="nonzero"/><path fill="#9cafcc" d="M 261.03125 481.089844 C 261.949219 481.089844 262.691406 481.832031 262.691406 482.746094 C 262.691406 483.660156 261.949219 484.402344 261.03125 484.402344 C 260.113281 484.402344 259.371094 483.660156 259.371094 482.746094 C 259.371094 481.832031 260.113281 481.089844 261.03125 481.089844 " fill-opacity="1" fill-rule="nonzero"/><path fill="#9cafcc" d="M 267.144531 480.480469 C 268.0625 480.480469 268.804688 481.21875 268.804688 482.136719 C 268.804688 483.050781 268.0625 483.792969 267.144531 483.792969 C 266.226562 483.792969 265.484375 483.050781 265.484375 482.136719 C 265.484375 481.21875 266.226562 480.480469 267.144531 480.480469 " fill-opacity="1" fill-rule="nonzero"/><path fill="#9cafcc" d="M 272.648438 479.867188 C 273.5625 479.867188 274.308594 480.609375 274.308594 481.523438 C 274.308594 482.441406 273.5625 483.183594 272.648438 483.183594 C 271.730469 483.183594 270.984375 482.441406 270.984375 481.523438 C 270.984375 480.609375 271.730469 479.867188 272.648438 479.867188 " fill-opacity="1" fill-rule="nonzero"/><path fill="#9cafcc" d="M 287.417969 442.429688 C 289.996094 442.429688 295.363281 440.90625 295.363281 440.90625 C 291.457031 440.90625 288.285156 435.636719 288.285156 429.128906 C 288.285156 422.628906 291.457031 417.355469 295.363281 417.355469 C 295.363281 417.355469 290.136719 415.832031 287.417969 415.832031 C 283.003906 415.832031 279.425781 421.785156 279.425781 429.128906 C 279.425781 436.476562 283.003906 442.429688 287.417969 442.429688 " fill-opacity="1" fill-rule="nonzero"/><path fill="#9cafcc" d="M 236.65625 460.589844 C 232.996094 459.945312 228.316406 458.359375 225.339844 456.070312 C 222.757812 454.082031 220.023438 451.554688 218.09375 448.917969 C 214.59375 444.125 212.757812 438.363281 211.855469 432.554688 C 211.058594 427.421875 209.902344 420.285156 212.289062 415.441406 C 214.640625 410.667969 221.769531 407.453125 226.789062 406.628906 C 233.65625 405.503906 243.824219 461.851562 236.65625 460.589844 " fill-opacity="1" fill-rule="nonzero"/><path fill="#fed9e9" d="M 242.046875 470.554688 C 242.308594 487.65625 245.1875 519.972656 251.039062 542.75 C 251.660156 542.722656 252.28125 542.683594 252.902344 542.640625 C 247.042969 520.039062 244.152344 487.757812 243.882812 470.644531 C 243.273438 470.617188 242.660156 470.59375 242.046875 470.554688 " fill-opacity="1" fill-rule="nonzero"/><path fill="#fed9e9" d="M 276.164062 489.328125 C 275.496094 490.476562 274.167969 490.675781 272.976562 490.84375 C 269.996094 491.257812 267.039062 491.785156 264.039062 492.039062 C 261.273438 492.277344 258.382812 492.441406 257.375 489.320312 C 256.652344 487.078125 256.554688 483.804688 257.152344 481.53125 C 257.742188 479.273438 260.160156 479.011719 262.121094 478.796875 C 265.226562 478.453125 268.367188 478.046875 271.496094 478.066406 C 273.847656 478.070312 275.953125 477.96875 276.171875 480.949219 C 276.308594 482.824219 276.808594 484.640625 276.816406 486.53125 C 276.824219 487.507812 276.65625 488.476562 276.164062 489.328125 Z M 272.445312 477.4375 C 272.128906 477.445312 271.8125 477.457031 271.496094 477.457031 C 267.914062 477.433594 264.242188 477.851562 260.699219 478.367188 C 258.609375 478.671875 257.042969 479.53125 256.488281 481.660156 C 256.136719 482.992188 256.246094 484.433594 256.292969 485.796875 C 256.347656 487.261719 256.484375 488.742188 257.011719 490.125 C 258.035156 492.8125 260.722656 492.832031 263.195312 492.710938 C 266.734375 492.535156 270.230469 491.820312 273.738281 491.351562 C 275.960938 491.054688 277.109375 489.554688 277.378906 487.417969 C 277.679688 485.070312 276.949219 482.648438 276.730469 480.320312 C 276.503906 477.9375 274.5 477.390625 272.445312 477.4375 " fill-opacity="1" fill-rule="nonzero"/><path fill="#fed9e9" d="M 261.03125 485.96875 C 261.949219 485.96875 262.691406 486.710938 262.691406 487.628906 C 262.691406 488.542969 261.949219 489.285156 261.03125 489.285156 C 260.113281 489.285156 259.371094 488.542969 259.371094 487.628906 C 259.371094 486.710938 260.113281 485.96875 261.03125 485.96875 " fill-opacity="1" fill-rule="nonzero"/><path fill="#fed9e9" d="M 267.144531 485.359375 C 268.0625 485.359375 268.804688 486.101562 268.804688 487.015625 C 268.804688 487.933594 268.0625 488.675781 267.144531 488.675781 C 266.226562 488.675781 265.484375 487.933594 265.484375 487.015625 C 265.484375 486.101562 266.226562 485.359375 267.144531 485.359375 " fill-opacity="1" fill-rule="nonzero"/><path fill="#fed9e9" d="M 272.648438 484.75 C 273.5625 484.75 274.308594 485.492188 274.308594 486.40625 C 274.308594 487.324219 273.5625 488.066406 272.648438 488.066406 C 271.730469 488.066406 270.984375 487.324219 270.984375 486.40625 C 270.984375 485.492188 271.730469 484.75 272.648438 484.75 " fill-opacity="1" fill-rule="nonzero"/><path fill="#fed9e9" d="M 260.929688 454.894531 C 264.910156 452.277344 267.914062 448.753906 270.339844 444.667969 C 270.457031 444.464844 270.582031 444.257812 270.699219 444.050781 C 270.773438 443.921875 270.847656 443.789062 270.921875 443.65625 C 271.074219 443.378906 271.226562 443.097656 271.378906 442.816406 C 271.667969 442.269531 271.953125 441.71875 272.226562 441.15625 C 273.078125 439.40625 273.714844 437.378906 274.167969 435.429688 C 271.976562 435.183594 268.101562 431.890625 267.6875 435.738281 C 261.6875 433.578125 256.597656 419.839844 256.597656 419.839844 C 256.597656 419.839844 236.355469 420.929688 230.558594 412.703125 C 227.34375 415.972656 223.863281 422.625 224.777344 431.53125 C 224.945312 433.15625 226.128906 435.9375 225.855469 438 C 225.597656 439.953125 225.207031 441.855469 224.804688 443.242188 C 223.304688 448.40625 224.503906 453.589844 227.8125 457.628906 C 230.5625 459.082031 233.898438 460.101562 236.65625 460.589844 C 243.824219 461.851562 251.683594 459.691406 258.097656 456.519531 C 259.09375 456.023438 260.039062 455.480469 260.929688 454.894531 " fill-opacity="1" fill-rule="nonzero"/><path fill="#fed9e9" d="M 155.378906 423.167969 C 152.554688 426.246094 157.726562 433.011719 164.941406 432.144531 C 172.152344 431.277344 168.109375 424.339844 168.109375 424.339844 C 168.109375 424.339844 158.203125 420.085938 155.378906 423.167969 " fill-opacity="1" fill-rule="nonzero"/><path fill="#fed9e9" d="M 351.441406 429.15625 C 349.371094 427.667969 339.984375 427.84375 338.226562 429.984375 C 336.472656 432.125 336.328125 438.0625 343.835938 437.675781 C 351.34375 437.285156 354.757812 431.542969 351.441406 429.15625 " fill-opacity="1" fill-rule="nonzero"/><g clip-path="url(#id9)"><path fill="#232946" d="M 167.425781 424.914062 C 167.464844 424.914062 167.496094 424.949219 167.492188 424.988281 C 167.492188 425.027344 167.460938 425.058594 167.425781 425.058594 C 167.425781 425.058594 167.042969 425.070312 166.378906 425.089844 C 166.042969 425.085938 165.644531 425.128906 165.175781 425.089844 C 164.707031 425.0625 164.179688 425.027344 163.605469 424.992188 C 163.023438 424.921875 162.402344 424.714844 161.789062 424.515625 C 161.167969 424.308594 160.523438 424.089844 159.851562 423.933594 C 159.183594 423.78125 158.476562 423.726562 157.835938 423.9375 C 157.496094 424.066406 157.203125 424.207031 156.941406 424.421875 C 156.679688 424.636719 156.46875 424.898438 156.335938 425.195312 C 156.046875 425.789062 156.152344 426.507812 156.546875 427.046875 C 156.722656 427.320312 157 427.5625 157.25 427.738281 C 157.5625 427.921875 157.867188 428.140625 158.175781 428.285156 C 158.488281 428.421875 158.78125 428.570312 159.089844 428.695312 C 159.410156 428.8125 159.71875 428.925781 160.019531 429.035156 C 160.636719 429.214844 161.222656 429.390625 161.777344 429.503906 C 162.324219 429.640625 162.839844 429.726562 163.289062 429.824219 C 163.742188 429.90625 164.140625 429.976562 164.46875 430.035156 C 165.121094 430.140625 165.496094 430.207031 165.496094 430.207031 C 165.53125 430.210938 165.558594 430.246094 165.550781 430.285156 C 165.546875 430.316406 165.515625 430.34375 165.480469 430.339844 C 165.480469 430.339844 165.101562 430.3125 164.4375 430.261719 C 164.105469 430.226562 163.703125 430.183594 163.242188 430.132812 C 162.78125 430.066406 162.257812 430.015625 161.695312 429.898438 C 161.125 429.804688 160.523438 429.652344 159.878906 429.492188 C 159.5625 429.390625 159.238281 429.289062 158.90625 429.183594 C 158.574219 429.070312 158.242188 428.902344 157.898438 428.757812 C 157.566406 428.601562 157.273438 428.394531 156.953125 428.214844 C 156.605469 427.976562 156.3125 427.722656 156.070312 427.378906 C 155.828125 427.042969 155.648438 426.644531 155.589844 426.214844 C 155.53125 425.785156 155.597656 425.339844 155.777344 424.945312 C 155.957031 424.550781 156.238281 424.214844 156.566406 423.957031 C 156.734375 423.832031 156.90625 423.714844 157.101562 423.621094 C 157.304688 423.503906 157.441406 423.472656 157.652344 423.386719 C 158.453125 423.136719 159.261719 423.226562 159.976562 423.394531 C 160.691406 423.566406 161.339844 423.828125 161.949219 424.054688 C 162.5625 424.28125 163.117188 424.496094 163.664062 424.585938 C 164.222656 424.652344 164.734375 424.714844 165.1875 424.769531 C 165.640625 424.839844 166.050781 424.824219 166.382812 424.851562 C 167.042969 424.890625 167.425781 424.914062 167.425781 424.914062 Z M 157.742188 413.695312 C 155.605469 412.472656 151.527344 411.660156 152.75 415.628906 C 153.363281 417.558594 155.40625 420.058594 156.320312 421.886719 C 155.214844 421.0625 154.113281 420.226562 153.019531 419.386719 C 152.09375 418.675781 151.234375 417.652344 149.992188 417.546875 C 148.996094 417.464844 147.683594 417.964844 147.472656 419.074219 C 147.160156 420.738281 149.503906 422.453125 150.492188 423.511719 C 151.0625 424.121094 151.738281 424.722656 152.238281 425.394531 C 151.351562 424.828125 150.421875 424.339844 149.460938 423.910156 C 148.234375 423.363281 145.871094 422.140625 145.515625 424.273438 C 145.210938 426.207031 146.839844 427.121094 148.265625 428.238281 C 149.691406 429.359375 150.710938 430.578125 151.933594 431.796875 C 150.8125 431.390625 145.921875 429.15625 145.921875 431.699219 C 145.921875 433.328125 150.203125 435.765625 151.121094 437.292969 C 152.445312 439.328125 153.058594 441.460938 155.09375 443.089844 C 156.503906 444.269531 158.441406 445.542969 160.445312 446.117188 C 161.636719 442.152344 164.621094 438.3125 167.253906 435.910156 C 168.792969 434.503906 171.011719 432.324219 173.324219 431.65625 C 171.960938 427.566406 168.148438 423.285156 166.097656 420.816406 C 163.859375 418.070312 160.902344 415.425781 157.742188 413.695312 " fill-opacity="1" fill-rule="nonzero"/></g><g clip-path="url(#id10)"><path fill="#232946" d="M 350.796875 431.707031 C 350.738281 432.136719 350.558594 432.535156 350.316406 432.871094 C 350.078125 433.214844 349.78125 433.46875 349.433594 433.707031 C 349.113281 433.890625 348.820312 434.09375 348.488281 434.25 C 348.148438 434.394531 347.816406 434.5625 347.484375 434.675781 C 347.152344 434.78125 346.824219 434.886719 346.507812 434.988281 C 345.867188 435.144531 345.261719 435.296875 344.695312 435.390625 C 344.132812 435.507812 343.609375 435.558594 343.148438 435.625 C 342.6875 435.675781 342.285156 435.714844 341.953125 435.753906 C 341.289062 435.804688 340.90625 435.832031 340.90625 435.832031 C 340.871094 435.835938 340.839844 435.808594 340.835938 435.769531 C 340.832031 435.734375 340.859375 435.703125 340.890625 435.695312 C 340.890625 435.695312 341.269531 435.636719 341.921875 435.527344 C 342.25 435.46875 342.644531 435.398438 343.101562 435.320312 C 343.550781 435.21875 344.0625 435.132812 344.613281 435 C 345.167969 434.882812 345.753906 434.707031 346.371094 434.527344 C 346.671875 434.417969 346.980469 434.304688 347.296875 434.1875 C 347.605469 434.0625 347.902344 433.917969 348.214844 433.777344 C 348.523438 433.632812 348.824219 433.414062 349.140625 433.230469 C 349.386719 433.050781 349.667969 432.8125 349.84375 432.539062 C 350.238281 432 350.34375 431.28125 350.054688 430.691406 C 349.921875 430.390625 349.710938 430.128906 349.449219 429.914062 C 349.1875 429.703125 348.890625 429.5625 348.550781 429.429688 C 347.914062 429.21875 347.207031 429.273438 346.539062 429.425781 C 345.867188 429.582031 345.222656 429.800781 344.601562 430.007812 C 343.984375 430.207031 343.367188 430.414062 342.785156 430.484375 C 342.207031 430.519531 341.679688 430.554688 341.210938 430.582031 C 340.746094 430.621094 340.34375 430.578125 340.011719 430.582031 C 339.347656 430.5625 338.964844 430.550781 338.964844 430.550781 C 338.925781 430.550781 338.894531 430.515625 338.894531 430.476562 C 338.894531 430.4375 338.925781 430.40625 338.964844 430.40625 C 338.964844 430.40625 339.34375 430.382812 340.007812 430.347656 C 340.339844 430.320312 340.746094 430.335938 341.199219 430.265625 C 341.65625 430.210938 342.167969 430.148438 342.726562 430.082031 C 343.273438 429.992188 343.824219 429.777344 344.441406 429.550781 C 345.050781 429.324219 345.699219 429.0625 346.414062 428.890625 C 347.125 428.722656 347.9375 428.632812 348.738281 428.882812 C 348.945312 428.96875 349.085938 429 349.285156 429.113281 C 349.484375 429.207031 349.652344 429.328125 349.820312 429.449219 C 350.148438 429.710938 350.429688 430.042969 350.613281 430.4375 C 350.789062 430.832031 350.859375 431.28125 350.796875 431.707031 Z M 354.453125 437.289062 C 355.675781 436.070312 356.695312 434.847656 358.125 433.730469 C 359.550781 432.613281 361.179688 431.699219 360.875 429.765625 C 360.519531 427.632812 358.152344 428.851562 356.929688 429.398438 C 355.96875 429.828125 355.035156 430.320312 354.148438 430.882812 C 354.652344 430.214844 355.328125 429.613281 355.898438 429.003906 C 356.882812 427.945312 359.230469 426.230469 358.914062 424.566406 C 358.707031 423.457031 357.394531 422.957031 356.394531 423.039062 C 355.15625 423.140625 354.292969 424.164062 353.371094 424.875 C 352.273438 425.71875 351.175781 426.550781 350.066406 427.382812 C 350.984375 425.550781 353.027344 423.054688 353.636719 421.117188 C 354.859375 417.152344 350.785156 417.96875 348.644531 419.1875 C 345.484375 420.917969 342.53125 423.558594 340.289062 426.308594 C 338.230469 428.785156 334.402344 433.082031 333.050781 437.183594 C 334.652344 436.675781 336.484375 436.84375 338.800781 438.085938 C 342.09375 439.863281 344.722656 443.101562 347.617188 445.429688 C 349.144531 446.65625 349.996094 447.96875 350.347656 449.320312 C 350.683594 449.074219 351 448.824219 351.292969 448.578125 C 353.332031 446.953125 353.941406 444.816406 355.265625 442.78125 C 356.183594 441.257812 360.464844 438.816406 360.464844 437.1875 C 360.464844 434.648438 355.574219 436.882812 354.453125 437.289062 " fill-opacity="1" fill-rule="nonzero"/></g><path fill="#232946" d="M 267.757812 415.269531 C 261.988281 411.394531 253.632812 408.492188 247.707031 407.363281 C 240.847656 406.074219 233.65625 405.503906 226.789062 406.628906 C 225.164062 406.894531 223.320312 407.414062 221.488281 408.152344 C 218.820312 410.53125 216.988281 414.414062 217.027344 417.867188 C 217.050781 419.929688 217.632812 421.941406 218.597656 423.757812 C 218.859375 424.257812 222.367188 428.996094 222.4375 428.910156 C 219.984375 431.9375 222.820312 435.703125 225.855469 438 C 226.128906 435.9375 226.257812 433.8125 226.09375 432.1875 C 225.175781 423.28125 227.839844 417.675781 231.054688 414.40625 C 236.851562 422.632812 246.125 423.210938 255.664062 421.933594 C 255.546875 427.257812 262.382812 435.667969 268.382812 437.828125 C 269.667969 436.082031 271.976562 435.183594 274.167969 435.429688 C 274.25 435.082031 274.328125 434.730469 274.398438 434.390625 C 275.816406 427.4375 273.898438 419.394531 267.757812 415.269531 " fill-opacity="1" fill-rule="nonzero"/><path fill="#232946" d="M 272.75 438.195312 C 272.75 438.195312 272.628906 438.238281 272.425781 438.328125 C 272.324219 438.363281 272.207031 438.449219 272.066406 438.542969 C 271.917969 438.632812 271.785156 438.757812 271.640625 438.902344 C 271.484375 439.035156 271.371094 439.21875 271.226562 439.398438 C 271.109375 439.59375 270.964844 439.796875 270.871094 440.023438 C 270.761719 440.25 270.660156 440.484375 270.585938 440.734375 C 270.496094 440.980469 270.445312 441.238281 270.378906 441.492188 C 270.28125 442.003906 270.214844 442.523438 270.210938 443.011719 C 270.199219 443.5 270.226562 443.953125 270.28125 444.335938 C 270.300781 444.453125 270.316406 444.5625 270.335938 444.667969 C 270.457031 444.460938 270.578125 444.257812 270.699219 444.050781 C 270.703125 443.945312 270.703125 443.847656 270.710938 443.738281 C 270.726562 443.734375 270.742188 443.734375 270.757812 443.726562 C 270.757812 443.726562 270.820312 443.699219 270.921875 443.65625 C 271.074219 443.378906 271.226562 443.097656 271.378906 442.816406 C 271.300781 442.855469 271.222656 442.890625 271.15625 442.925781 C 271.015625 443 270.867188 443.039062 270.757812 443.078125 C 270.761719 443.066406 270.761719 443.054688 270.761719 443.042969 C 270.808594 442.582031 270.875 442.09375 270.976562 441.617188 C 271.03125 441.378906 271.074219 441.136719 271.152344 440.910156 C 271.21875 440.679688 271.289062 440.457031 271.378906 440.25 C 271.453125 440.035156 271.558594 439.847656 271.644531 439.65625 C 271.757812 439.488281 271.835938 439.300781 271.953125 439.167969 C 272.0625 439.027344 272.15625 438.886719 272.261719 438.792969 C 272.363281 438.691406 272.441406 438.59375 272.542969 438.535156 C 272.722656 438.402344 272.820312 438.320312 272.820312 438.320312 C 272.847656 438.300781 272.855469 438.265625 272.84375 438.234375 C 272.832031 438.199219 272.789062 438.179688 272.75 438.195312 " fill-opacity="1" fill-rule="nonzero"/><path fill="#232946" d="M 238.164062 443.917969 C 238.234375 443.730469 238.351562 443.574219 238.46875 443.425781 C 238.539062 443.359375 238.605469 443.296875 238.667969 443.226562 C 238.742188 443.164062 238.820312 443.117188 238.894531 443.0625 C 239.035156 442.945312 239.210938 442.902344 239.355469 442.816406 C 239.507812 442.753906 239.65625 442.726562 239.785156 442.675781 C 239.914062 442.628906 240.046875 442.628906 240.148438 442.605469 C 240.355469 442.566406 240.46875 442.546875 240.46875 442.546875 C 240.46875 442.546875 240.355469 442.523438 240.148438 442.484375 C 240.042969 442.476562 239.925781 442.429688 239.773438 442.445312 C 239.625 442.457031 239.445312 442.445312 239.261719 442.484375 C 239.082031 442.535156 238.867188 442.550781 238.675781 442.664062 C 238.578125 442.714844 238.472656 442.761719 238.371094 442.824219 C 238.277344 442.894531 238.183594 442.972656 238.085938 443.050781 C 237.917969 443.226562 237.730469 443.421875 237.628906 443.664062 C 237.5 443.898438 237.441406 444.160156 237.402344 444.417969 C 237.394531 444.550781 237.378906 444.683594 237.382812 444.8125 L 237.425781 445.199219 C 237.484375 445.449219 237.550781 445.691406 237.667969 445.902344 C 237.761719 446.125 237.90625 446.308594 238.039062 446.476562 C 238.164062 446.652344 238.335938 446.773438 238.464844 446.902344 C 238.605469 447.019531 238.757812 447.101562 238.882812 447.183594 C 239 447.273438 239.128906 447.308594 239.222656 447.351562 C 239.417969 447.429688 239.53125 447.46875 239.53125 447.46875 C 239.53125 447.46875 239.441406 447.386719 239.289062 447.25 C 239.214844 447.175781 239.113281 447.109375 239.023438 447 C 238.929688 446.894531 238.820312 446.785156 238.714844 446.652344 C 238.621094 446.511719 238.496094 446.378906 238.410156 446.214844 C 238.320312 446.050781 238.226562 445.878906 238.164062 445.6875 C 238.074219 445.507812 238.058594 445.300781 238.007812 445.105469 L 237.984375 444.796875 C 237.980469 444.695312 238 444.597656 238.003906 444.492188 C 238.035156 444.296875 238.070312 444.089844 238.164062 443.917969 " fill-opacity="1" fill-rule="nonzero"/><path fill="#232946" d="M 233.789062 440.71875 C 233.882812 440.886719 233.9375 440.984375 233.9375 440.984375 C 233.9375 440.984375 233.929688 440.875 233.90625 440.679688 C 233.875 440.488281 233.820312 440.214844 233.691406 439.898438 C 233.632812 439.738281 233.550781 439.574219 233.453125 439.402344 C 233.351562 439.234375 233.238281 439.058594 233.089844 438.898438 C 232.949219 438.730469 232.789062 438.570312 232.605469 438.429688 C 232.425781 438.289062 232.222656 438.164062 232.015625 438.050781 C 231.804688 437.960938 231.585938 437.863281 231.363281 437.8125 C 231.144531 437.738281 230.917969 437.722656 230.707031 437.691406 C 230.273438 437.660156 229.878906 437.695312 229.546875 437.761719 C 229.210938 437.832031 228.949219 437.914062 228.773438 437.996094 C 228.59375 438.066406 228.496094 438.113281 228.496094 438.113281 C 228.496094 438.113281 228.605469 438.117188 228.800781 438.109375 C 228.992188 438.097656 229.265625 438.105469 229.578125 438.105469 C 229.734375 438.117188 229.902344 438.128906 230.082031 438.140625 C 230.257812 438.164062 230.445312 438.191406 230.632812 438.222656 C 230.816406 438.265625 231.007812 438.308594 231.195312 438.375 C 231.386719 438.425781 231.5625 438.515625 231.746094 438.597656 C 231.921875 438.6875 232.09375 438.785156 232.253906 438.902344 C 232.410156 439.019531 232.566406 439.132812 232.699219 439.265625 C 232.980469 439.519531 233.199219 439.808594 233.382812 440.0625 C 233.558594 440.320312 233.695312 440.554688 233.789062 440.71875 " fill-opacity="1" fill-rule="nonzero"/><path fill="#232946" d="M 256.042969 440.765625 C 255.972656 440.605469 255.867188 440.421875 255.742188 440.210938 C 255.617188 440.003906 255.445312 439.78125 255.246094 439.550781 C 254.847656 439.097656 254.292969 438.621094 253.574219 438.3125 C 253.21875 438.15625 252.828125 438.042969 252.421875 437.988281 C 252.222656 437.957031 252.011719 437.949219 251.796875 437.945312 C 251.691406 437.941406 251.601562 437.953125 251.503906 437.953125 C 251.410156 437.957031 251.28125 437.96875 251.191406 437.984375 C 250.378906 438.085938 249.601562 438.351562 248.9375 438.714844 C 248.277344 439.078125 247.714844 439.507812 247.296875 439.941406 C 246.882812 440.378906 246.605469 440.792969 246.4375 441.101562 C 246.347656 441.253906 246.304688 441.378906 246.265625 441.460938 C 246.226562 441.542969 246.207031 441.589844 246.207031 441.589844 L 246.207031 441.59375 C 246.191406 441.628906 246.203125 441.667969 246.238281 441.6875 C 246.273438 441.707031 246.316406 441.695312 246.335938 441.660156 C 246.335938 441.660156 246.433594 441.484375 246.628906 441.21875 C 246.8125 440.949219 247.125 440.578125 247.554688 440.207031 C 247.769531 440.023438 248.007812 439.832031 248.277344 439.65625 C 248.546875 439.476562 248.84375 439.3125 249.164062 439.160156 C 249.800781 438.875 250.523438 438.636719 251.257812 438.570312 C 251.359375 438.558594 251.425781 438.550781 251.527344 438.550781 C 251.625 438.550781 251.726562 438.539062 251.816406 438.542969 C 251.988281 438.554688 252.164062 438.558594 252.339844 438.59375 C 252.691406 438.640625 253.035156 438.726562 253.347656 438.859375 C 253.984375 439.105469 254.515625 439.492188 254.933594 439.863281 C 255.140625 440.050781 255.308594 440.246094 255.464844 440.417969 C 255.613281 440.59375 255.738281 440.75 255.832031 440.890625 C 256.023438 441.164062 256.128906 441.328125 256.128906 441.328125 L 256.132812 441.332031 C 256.144531 441.355469 256.179688 441.367188 256.210938 441.355469 C 256.246094 441.34375 256.265625 441.304688 256.25 441.269531 C 256.25 441.269531 256.234375 441.222656 256.199219 441.136719 C 256.164062 441.050781 256.125 440.917969 256.042969 440.765625 " fill-opacity="1" fill-rule="nonzero"/><path fill="#232946" d="M 247.472656 435.4375 C 248.757812 434.582031 249.941406 434.320312 251.433594 434.191406 C 252.121094 434.105469 255.03125 433.742188 253.996094 432.425781 C 253.199219 431.597656 250.269531 431.847656 249.257812 432.089844 C 247.90625 432.429688 245.523438 433.304688 245.074219 434.808594 C 244.507812 436.789062 246.507812 436.078125 247.472656 435.4375 " fill-opacity="1" fill-rule="nonzero"/><path fill="#232946" d="M 234.3125 435.664062 C 235.195312 436.40625 237.101562 437.34375 236.765625 435.308594 C 236.488281 433.765625 234.21875 432.625 232.917969 432.132812 C 231.9375 431.761719 230.75 431.519531 229.703125 431.53125 C 229.300781 431.535156 228.644531 431.734375 228.257812 432.046875 C 227.894531 432.34375 227.765625 432.738281 228.3125 433.160156 C 228.878906 433.601562 229.820312 433.835938 230.515625 433.976562 C 231.984375 434.273438 233.132812 434.667969 234.3125 435.664062 " fill-opacity="1" fill-rule="nonzero"/><path fill="#232946" d="M 233.574219 449.871094 L 233.128906 450.289062 C 235.214844 452.523438 237.796875 453.382812 240.390625 453.382812 C 242.914062 453.382812 245.449219 452.574219 247.5625 451.414062 L 247.269531 450.878906 C 243.1875 453.117188 237.449219 454.023438 233.574219 449.871094 " fill-opacity="1" fill-rule="nonzero"/></svg>