<svg xmlns="http://www.w3.org/2000/svg" width="18" height="18" viewBox="0 0 1024 1024"><path fill="currentColor" d="M843.5 737.4c-12.4-75.2-79.2-129.1-155.3-125.4S550.9 676 546 752c-153.5-4.8-208-40.7-199.1-113.7c3.3-27.3 19.8-41.9 50.1-49c18.4-4.3 38.8-4.9 57.3-3.2c1.7.2 3.5.3 5.2.5c11.3 2.7 22.8 5 34.3 6.8c34.1 5.6 68.8 8.4 101.8 6.6c92.8-5 156-45.9 159.2-132.7c3.1-84.1-54.7-143.7-147.9-183.6c-29.9-12.8-61.6-22.7-93.3-30.2c-14.3-3.4-26.3-5.7-35.2-7.2c-7.9-75.9-71.5-133.8-147.8-134.4S189.7 168 180.5 243.8s40 146.3 114.2 163.9s149.9-23.3 175.7-95.1c9.4 1.7 18.7 3.6 28 5.8c28.2 6.6 56.4 15.4 82.4 26.6c70.7 30.2 109.3 70.1 107.5 119.9c-1.6 44.6-33.6 65.2-96.2 68.6c-27.5 1.5-57.6-.9-87.3-5.8c-8.3-1.4-15.9-2.8-22.6-4.3c-3.9-.8-6.6-1.5-7.8-1.8l-3.1-.6c-2.2-.3-5.9-.8-10.7-1.3c-25-2.3-52.1-1.5-78.5 4.6c-55.2 12.9-93.9 47.2-101.1 105.8c-15.7 126.2 78.6 184.7 276 188.9c29.1 70.4 106.4 107.9 179.6 87c73.3-20.9 119.3-93.4 106.9-168.6M329.1 345.2c-46 0-83.3-37.3-83.3-83.3s37.3-83.3 83.3-83.3s83.3 37.3 83.3 83.3s-37.3 83.3-83.3 83.3M695.6 845c-46 0-83.3-37.3-83.3-83.3s37.3-83.3 83.3-83.3s83.3 37.3 83.3 83.3s-37.3 83.3-83.3 83.3"/></svg>